<svg width="311" height="462" viewBox="0 0 311 462" fill="none" xmlns="http://www.w3.org/2000/svg">
<g filter="url(#filter0_d)">
<path d="M40 75C40 61.1929 51.1929 50 65 50H246C259.807 50 271 61.1929 271 75V430H40V75Z" fill="#1B1B26"/>
<path d="M47 78C47 66.9543 55.9543 58 67 58H244C255.046 58 264 66.9543 264 78V432H47V78Z" fill="#1C1F4E"/>
<rect x="59" y="130" width="194" height="277" rx="13" fill="#252862"/>
<g filter="url(#filter1_d)">
<path d="M62.5 234L85.5 189.5V205L92 183.5L94.5 201L99 158.5L109 225.5L113 209L115 182L126.5 176.5L147.5 156L172.5 231.5L175 205V189.5L182.5 201L187 231.5L189.5 196L194 176.5V192.5L201 170.5L203.5 192.5L207.5 218.5H212.5L215.5 201V176.5V164L228 152L238 176.5L245.5 205L251.5 218.5" stroke="#00FFFF"/>
</g>
<rect x="59" y="266" width="194" height="13" fill="#1C1F4E" fill-opacity="0.35"/>
<path d="M112 50H202V60C202 65.5228 197.523 70 192 70H122C116.477 70 112 65.5228 112 60V50Z" fill="#1B1B26"/>
<path d="M127.248 106.376H131.488V104.296H127.248V101.912H131.888V99.8H125.04V111H131.968V108.888H127.248V106.376ZM132.692 99.8V101.912H135.7V111H137.908V101.912H140.932V99.8H132.692ZM148.533 104.248H144.373V99.8H142.165V111H144.373V106.36H148.533V111H150.725V99.8H148.533V104.248ZM159.606 98.2H158.694L152.294 112.6H153.206L159.606 98.2ZM169.421 107.752C169.421 106.616 168.925 105.752 167.949 105.192C168.653 104.632 169.005 103.88 169.005 102.952C169.005 102.04 168.669 101.288 168.013 100.696C167.357 100.104 166.541 99.8 165.597 99.8H161.181V111H165.933C166.909 111 167.741 110.696 168.413 110.088C169.085 109.48 169.421 108.696 169.421 107.752ZM165.597 101.864C165.949 101.864 166.237 101.976 166.461 102.216C166.685 102.456 166.797 102.744 166.797 103.096C166.797 103.448 166.685 103.736 166.461 103.976C166.221 104.216 165.933 104.328 165.597 104.328H163.389V101.864H165.597ZM163.389 108.936V106.296H165.933C166.301 106.296 166.621 106.424 166.861 106.664C167.101 106.92 167.229 107.24 167.229 107.608C167.229 107.992 167.101 108.312 166.861 108.552C166.621 108.808 166.301 108.936 165.933 108.936H163.389ZM169.724 99.8V101.912H172.732V111H174.94V101.912H177.964V99.8H169.724ZM179.692 109.544C180.796 110.664 182.188 111.224 183.868 111.224C184.876 111.224 185.82 110.984 186.684 110.504C187.532 110.04 188.204 109.4 188.684 108.584L186.78 107.48C186.508 107.976 186.124 108.36 185.612 108.632C185.084 108.92 184.508 109.064 183.868 109.064C182.78 109.064 181.9 108.728 181.228 108.04C180.572 107.352 180.236 106.472 180.236 105.4C180.236 104.328 180.572 103.432 181.228 102.744C181.9 102.056 182.78 101.72 183.868 101.72C185.212 101.72 186.188 102.248 186.78 103.32L188.684 102.216C188.204 101.4 187.532 100.76 186.684 100.296C185.82 99.816 184.876 99.576 183.868 99.576C182.188 99.576 180.796 100.136 179.692 101.256C178.588 102.36 178.044 103.736 178.044 105.4C178.044 107.048 178.588 108.44 179.692 109.544Z" fill="white"/>
<path d="M62.055 270.825L62.225 271.415L62.885 271.23V274H63.575V270.5H62.975L62.055 270.825ZM64.2586 270.5V274H65.6486C66.1286 274 66.5286 273.83 66.8486 273.495C67.1736 273.16 67.3336 272.745 67.3336 272.25C67.3336 271.755 67.1736 271.34 66.8486 271.005C66.5286 270.67 66.1286 270.5 65.6486 270.5H64.2586ZM64.9486 273.34V271.16H65.6486C65.9536 271.16 66.1986 271.26 66.3886 271.465C66.5786 271.665 66.6736 271.925 66.6736 272.25C66.6736 272.57 66.5786 272.835 66.3886 273.04C66.1986 273.24 65.9536 273.34 65.6486 273.34H64.9486Z" fill="#949494"/>
<path d="M92.04 271.775L92.085 271.145H93.43V270.5H91.445L91.305 272.445H92.365C92.53 272.445 92.665 272.49 92.76 272.575C92.855 272.66 92.905 272.775 92.905 272.92C92.905 273.065 92.855 273.185 92.76 273.27C92.66 273.355 92.52 273.395 92.345 273.395C92.01 273.395 91.8 273.255 91.715 272.975L91.125 273.32C91.22 273.565 91.38 273.75 91.595 273.88C91.81 274.005 92.06 274.07 92.345 274.07C92.7 274.07 92.995 273.97 93.23 273.765C93.475 273.56 93.595 273.28 93.595 272.92C93.595 272.56 93.48 272.28 93.25 272.08C93.025 271.875 92.74 271.775 92.4 271.775H92.04ZM94.0643 270.5V274H95.4543C95.9343 274 96.3343 273.83 96.6543 273.495C96.9793 273.16 97.1393 272.745 97.1393 272.25C97.1393 271.755 96.9793 271.34 96.6543 271.005C96.3343 270.67 95.9343 270.5 95.4543 270.5H94.0643ZM94.7543 273.34V271.16H95.4543C95.7593 271.16 96.0043 271.26 96.1943 271.465C96.3843 271.665 96.4793 271.925 96.4793 272.25C96.4793 272.57 96.3843 272.835 96.1943 273.04C96.0043 273.24 95.7593 273.34 95.4543 273.34H94.7543Z" fill="#949494"/>
<path d="M123.42 271.07V270.5H121.22V271.145H122.59L121.9 272.045L122.165 272.445H122.315C122.49 272.445 122.63 272.49 122.73 272.575C122.825 272.66 122.875 272.775 122.875 272.92C122.875 273.065 122.825 273.185 122.73 273.27C122.63 273.355 122.49 273.395 122.315 273.395C121.995 273.395 121.79 273.26 121.705 272.99L121.115 273.33C121.21 273.565 121.37 273.75 121.585 273.88C121.795 274.005 122.04 274.07 122.315 274.07C122.67 274.07 122.965 273.97 123.2 273.765C123.445 273.56 123.565 273.28 123.565 272.92C123.565 272.675 123.49 272.465 123.345 272.285C123.2 272.11 123.01 271.99 122.765 271.92L123.42 271.07ZM126.765 270.5L125.765 272.155L124.76 270.5H124.05V274H124.74V271.735L125.725 273.355H125.805L126.79 271.73V274H127.475V270.5H126.765Z" fill="#949494"/>
<path d="M153.2 270.5H152.41L151.32 272.145C151.185 272.35 151.115 272.585 151.115 272.85C151.115 273.215 151.23 273.505 151.465 273.73C151.7 273.955 152.005 274.07 152.38 274.07C152.755 274.07 153.06 273.955 153.295 273.73C153.53 273.5 153.65 273.205 153.65 272.85C153.65 272.505 153.535 272.215 153.31 271.99C153.085 271.765 152.79 271.645 152.425 271.635L153.2 270.5ZM152.8 272.44C152.91 272.545 152.965 272.685 152.965 272.85C152.965 273.02 152.91 273.16 152.8 273.265C152.69 273.37 152.55 273.42 152.38 273.42C152.21 273.42 152.07 273.37 151.965 273.265C151.855 273.16 151.8 273.02 151.8 272.85C151.8 272.68 151.855 272.545 151.965 272.44C152.07 272.335 152.21 272.285 152.38 272.285C152.55 272.285 152.69 272.335 152.8 272.44ZM156.804 270.5L155.804 272.155L154.799 270.5H154.089V274H154.779V271.735L155.764 273.355H155.844L156.829 271.73V274H157.514V270.5H156.804Z" fill="#00FFFF"/>
<path d="M181.055 270.825L181.225 271.415L181.885 271.23V274H182.575V270.5H181.975L181.055 270.825ZM185.249 270.5L184.489 271.96L183.729 270.5H182.949L184.144 272.635V274H184.829V272.635L186.029 270.5H185.249Z" fill="#949494"/>
<path d="M211.04 271.775L211.085 271.145H212.43V270.5H210.445L210.305 272.445H211.365C211.53 272.445 211.665 272.49 211.76 272.575C211.855 272.66 211.905 272.775 211.905 272.92C211.905 273.065 211.855 273.185 211.76 273.27C211.66 273.355 211.52 273.395 211.345 273.395C211.01 273.395 210.8 273.255 210.715 272.975L210.125 273.32C210.22 273.565 210.38 273.75 210.595 273.88C210.81 274.005 211.06 274.07 211.345 274.07C211.7 274.07 211.995 273.97 212.23 273.765C212.475 273.56 212.595 273.28 212.595 272.92C212.595 272.56 212.48 272.28 212.25 272.08C212.025 271.875 211.74 271.775 211.4 271.775H211.04ZM214.903 270.5L214.143 271.96L213.383 270.5H212.603L213.798 272.635V274H214.483V272.635L215.683 270.5H214.903Z" fill="#949494"/>
<path d="M242.04 270.5L241.04 272.155L240.035 270.5H239.325V274H240.015V271.735L241 273.355H241.08L242.065 271.73V274H242.75V270.5H242.04ZM246.402 274L245.172 270.5H244.317L243.092 274H243.837L244.047 273.37H245.442L245.652 274H246.402ZM244.747 271.295L245.227 272.725H244.267L244.747 271.295ZM248.332 272.2L249.347 270.5H248.567L247.942 271.55L247.317 270.5H246.537L247.552 272.205L246.482 274H247.262L247.942 272.86L248.622 274H249.407L248.332 272.2Z" fill="#949494"/>
<path d="M119.296 315.812C120.11 314.998 120.528 313.942 120.528 312.688C120.528 311.258 119.956 310.136 118.834 309.322C118.416 309.036 117.514 308.596 116.084 308.024V304.35C116.854 304.548 117.404 305.076 117.756 305.956L120.308 304.46C119.494 302.634 118.086 301.6 116.084 301.358V299.4H114.61V301.314C113.4 301.424 112.366 301.864 111.486 302.656C110.65 303.426 110.232 304.46 110.232 305.758C110.32 307.386 110.958 308.574 112.146 309.322C112.85 309.762 113.642 310.136 114.544 310.466L114.588 310.488H114.61V314.294C113.444 314.14 112.63 313.48 112.168 312.292L109.55 313.81C110.364 315.944 112.036 317.088 114.61 317.286V319.2H116.084V317.264C117.426 317.11 118.504 316.626 119.296 315.812ZM114.61 307.364C113.708 306.902 113.246 306.374 113.246 305.78C113.246 304.966 113.708 304.46 114.61 304.284V307.364ZM116.084 311.082C117.03 311.5 117.492 312.05 117.492 312.71C117.492 313.546 117.03 314.052 116.084 314.25V311.082ZM126.816 303.03L127.564 305.626L130.468 304.812V317H133.504V301.6H130.864L126.816 303.03ZM137.48 315.13C138.58 316.582 140.098 317.308 142.012 317.308C143.97 317.308 145.466 316.582 146.544 315.13C147.622 313.656 148.172 311.698 148.172 309.3C148.172 306.902 147.622 304.966 146.544 303.492C145.466 302.018 143.97 301.292 142.012 301.292C140.098 301.292 138.58 302.018 137.48 303.492C136.402 304.966 135.852 306.902 135.852 309.3C135.852 311.698 136.402 313.656 137.48 315.13ZM142.012 304.24C144.102 304.24 145.158 305.934 145.158 309.3C145.158 312.666 144.102 314.338 142.012 314.338C139.922 314.338 138.888 312.666 138.888 309.3C138.888 305.934 139.922 304.24 142.012 304.24ZM160.709 312.71C160.709 311.082 160.005 309.85 158.575 308.992C159.653 308.222 160.181 307.166 160.181 305.802C160.181 304.372 159.697 303.272 158.751 302.48C157.805 301.688 156.617 301.292 155.187 301.292C153.757 301.292 152.569 301.688 151.601 302.48C150.655 303.272 150.171 304.372 150.171 305.802C150.171 307.166 150.699 308.222 151.777 308.992C150.369 309.85 149.665 311.082 149.665 312.71C149.665 314.14 150.149 315.262 151.139 316.076C152.129 316.89 153.471 317.308 155.187 317.308C156.881 317.308 158.245 316.89 159.235 316.076C160.225 315.262 160.709 314.14 160.709 312.71ZM155.187 304.152C155.781 304.152 156.243 304.306 156.617 304.636C156.991 304.966 157.167 305.406 157.167 305.956C157.167 306.528 156.991 306.968 156.617 307.298C156.243 307.628 155.781 307.782 155.187 307.782C154.593 307.782 154.131 307.628 153.757 307.298C153.383 306.968 153.207 306.528 153.207 305.956C153.207 305.406 153.383 304.966 153.757 304.636C154.131 304.306 154.593 304.152 155.187 304.152ZM157.013 310.752C157.475 311.126 157.695 311.654 157.695 312.314C157.695 312.974 157.475 313.502 157.013 313.876C156.551 314.25 155.957 314.448 155.187 314.448C154.417 314.448 153.823 314.25 153.383 313.876C152.921 313.502 152.679 312.974 152.679 312.314C152.679 311.654 152.921 311.126 153.383 310.752C153.823 310.378 154.417 310.202 155.187 310.202C155.957 310.202 156.551 310.378 157.013 310.752ZM164.391 317.286C164.897 317.286 165.337 317.11 165.711 316.736C166.085 316.362 166.261 315.922 166.261 315.416C166.261 314.91 166.085 314.47 165.711 314.096C165.337 313.722 164.897 313.546 164.391 313.546C163.885 313.546 163.445 313.722 163.071 314.096C162.697 314.47 162.521 314.91 162.521 315.416C162.521 315.922 162.697 316.362 163.071 316.736C163.445 317.11 163.885 317.286 164.391 317.286ZM178.132 311.566V307.914H175.074V311.566H171.07L176.174 301.6H172.918L167.792 311.566V314.382H175.074V317H178.132V314.382H179.782V311.566H178.132ZM184.668 307.21L184.866 304.438H190.784V301.6H182.05L181.434 310.158H186.098C186.824 310.158 187.418 310.356 187.836 310.73C188.254 311.104 188.474 311.61 188.474 312.248C188.474 312.886 188.254 313.414 187.836 313.788C187.396 314.162 186.78 314.338 186.01 314.338C184.536 314.338 183.612 313.722 183.238 312.49L180.642 314.008C181.06 315.086 181.764 315.9 182.71 316.472C183.656 317.022 184.756 317.308 186.01 317.308C187.572 317.308 188.87 316.868 189.904 315.966C190.982 315.064 191.51 313.832 191.51 312.248C191.51 310.664 191.004 309.432 189.992 308.552C189.002 307.65 187.748 307.21 186.252 307.21H184.668Z" fill="white"/>
<path d="M88.088 377.92L88.36 378.864L89.416 378.568V383H90.52V377.4H89.56L88.088 377.92ZM91.9658 382.32C92.3658 382.848 92.9178 383.112 93.6138 383.112C94.3258 383.112 94.8698 382.848 95.2618 382.32C95.6538 381.784 95.8538 381.072 95.8538 380.2C95.8538 379.328 95.6538 378.624 95.2618 378.088C94.8698 377.552 94.3258 377.288 93.6138 377.288C92.9178 377.288 92.3658 377.552 91.9658 378.088C91.5738 378.624 91.3738 379.328 91.3738 380.2C91.3738 381.072 91.5738 381.784 91.9658 382.32ZM93.6138 378.36C94.3738 378.36 94.7578 378.976 94.7578 380.2C94.7578 381.424 94.3738 382.032 93.6138 382.032C92.8538 382.032 92.4778 381.424 92.4778 380.2C92.4778 378.976 92.8538 378.36 93.6138 378.36ZM99.6528 377.4H98.3888L96.6448 380.032C96.4288 380.36 96.3168 380.736 96.3168 381.16C96.3168 381.744 96.5008 382.208 96.8768 382.568C97.2528 382.928 97.7408 383.112 98.3408 383.112C98.9408 383.112 99.4288 382.928 99.8048 382.568C100.181 382.2 100.373 381.728 100.373 381.16C100.373 380.608 100.189 380.144 99.8288 379.784C99.4688 379.424 98.9968 379.232 98.4128 379.216L99.6528 377.4ZM99.0128 380.504C99.1888 380.672 99.2768 380.896 99.2768 381.16C99.2768 381.432 99.1888 381.656 99.0128 381.824C98.8368 381.992 98.6128 382.072 98.3408 382.072C98.0688 382.072 97.8448 381.992 97.6768 381.824C97.5008 381.656 97.4128 381.432 97.4128 381.16C97.4128 380.888 97.5008 380.672 97.6768 380.504C97.8448 380.336 98.0688 380.256 98.3408 380.256C98.6128 380.256 98.8368 380.336 99.0128 380.504ZM101.47 383.104C101.654 383.104 101.814 383.04 101.95 382.904C102.086 382.768 102.15 382.608 102.15 382.424C102.15 382.24 102.086 382.08 101.95 381.944C101.814 381.808 101.654 381.744 101.47 381.744C101.286 381.744 101.126 381.808 100.99 381.944C100.854 382.08 100.79 382.24 100.79 382.424C100.79 382.608 100.854 382.768 100.99 382.904C101.126 383.04 101.286 383.104 101.47 383.104ZM105.881 380.368C106.105 380.04 106.217 379.656 106.217 379.232C106.217 378.664 106.025 378.192 105.649 377.832C105.273 377.472 104.785 377.288 104.185 377.288C103.585 377.288 103.097 377.472 102.721 377.832C102.345 378.192 102.161 378.656 102.161 379.232C102.161 379.8 102.345 380.264 102.705 380.624C103.073 380.984 103.545 381.168 104.129 381.176L102.881 383H104.145L105.889 380.368H105.881ZM103.529 379.896C103.345 379.728 103.257 379.504 103.257 379.232C103.257 378.968 103.345 378.744 103.529 378.576C103.697 378.408 103.921 378.328 104.185 378.328C104.465 378.328 104.689 378.408 104.857 378.576C105.033 378.744 105.121 378.96 105.121 379.232C105.121 379.504 105.033 379.728 104.857 379.896C104.689 380.064 104.465 380.144 104.185 380.144C103.921 380.144 103.697 380.064 103.529 379.896ZM109.786 378.312V377.4H106.266V378.432H108.458L107.354 379.872L107.778 380.512H108.018C108.298 380.512 108.522 380.584 108.682 380.72C108.834 380.856 108.914 381.04 108.914 381.272C108.914 381.504 108.834 381.696 108.682 381.832C108.522 381.968 108.298 382.032 108.018 382.032C107.506 382.032 107.178 381.816 107.042 381.384L106.098 381.928C106.25 382.304 106.506 382.6 106.85 382.808C107.186 383.008 107.578 383.112 108.018 383.112C108.586 383.112 109.058 382.952 109.434 382.624C109.826 382.296 110.018 381.848 110.018 381.272C110.018 380.88 109.898 380.544 109.666 380.256C109.434 379.976 109.13 379.784 108.738 379.672L109.786 378.312Z" fill="white"/>
<path d="M140.088 377.92L140.36 378.864L141.416 378.568V383H142.52V377.4H141.56L140.088 377.92ZM143.966 382.32C144.366 382.848 144.918 383.112 145.614 383.112C146.326 383.112 146.87 382.848 147.262 382.32C147.654 381.784 147.854 381.072 147.854 380.2C147.854 379.328 147.654 378.624 147.262 378.088C146.87 377.552 146.326 377.288 145.614 377.288C144.918 377.288 144.366 377.552 143.966 378.088C143.574 378.624 143.374 379.328 143.374 380.2C143.374 381.072 143.574 381.784 143.966 382.32ZM145.614 378.36C146.374 378.36 146.758 378.976 146.758 380.2C146.758 381.424 146.374 382.032 145.614 382.032C144.854 382.032 144.478 381.424 144.478 380.2C144.478 378.976 144.854 378.36 145.614 378.36ZM152.413 381.44C152.413 380.848 152.157 380.4 151.637 380.088C152.029 379.808 152.221 379.424 152.221 378.928C152.221 378.408 152.045 378.008 151.701 377.72C151.357 377.432 150.925 377.288 150.405 377.288C149.885 377.288 149.453 377.432 149.101 377.72C148.757 378.008 148.581 378.408 148.581 378.928C148.581 379.424 148.773 379.808 149.165 380.088C148.653 380.4 148.397 380.848 148.397 381.44C148.397 381.96 148.573 382.368 148.933 382.664C149.293 382.96 149.781 383.112 150.405 383.112C151.021 383.112 151.517 382.96 151.877 382.664C152.237 382.368 152.413 381.96 152.413 381.44ZM150.405 378.328C150.621 378.328 150.789 378.384 150.925 378.504C151.061 378.624 151.125 378.784 151.125 378.984C151.125 379.192 151.061 379.352 150.925 379.472C150.789 379.592 150.621 379.648 150.405 379.648C150.189 379.648 150.021 379.592 149.885 379.472C149.749 379.352 149.685 379.192 149.685 378.984C149.685 378.784 149.749 378.624 149.885 378.504C150.021 378.384 150.189 378.328 150.405 378.328ZM151.069 380.728C151.237 380.864 151.317 381.056 151.317 381.296C151.317 381.536 151.237 381.728 151.069 381.864C150.901 382 150.685 382.072 150.405 382.072C150.125 382.072 149.909 382 149.749 381.864C149.581 381.728 149.493 381.536 149.493 381.296C149.493 381.056 149.581 380.864 149.749 380.728C149.909 380.592 150.125 380.528 150.405 380.528C150.685 380.528 150.901 380.592 151.069 380.728ZM153.752 383.104C153.936 383.104 154.096 383.04 154.232 382.904C154.368 382.768 154.432 382.608 154.432 382.424C154.432 382.24 154.368 382.08 154.232 381.944C154.096 381.808 153.936 381.744 153.752 381.744C153.568 381.744 153.408 381.808 153.272 381.944C153.136 382.08 153.072 382.24 153.072 382.424C153.072 382.608 153.136 382.768 153.272 382.904C153.408 383.04 153.568 383.104 153.752 383.104ZM158.748 381.024V379.696H157.636V381.024H156.18L158.036 377.4H156.852L154.988 381.024V382.048H157.636V383H158.748V382.048H159.348V381.024H158.748ZM160.333 382.32C160.733 382.848 161.285 383.112 161.981 383.112C162.693 383.112 163.237 382.848 163.629 382.32C164.021 381.784 164.221 381.072 164.221 380.2C164.221 379.328 164.021 378.624 163.629 378.088C163.237 377.552 162.693 377.288 161.981 377.288C161.285 377.288 160.733 377.552 160.333 378.088C159.941 378.624 159.741 379.328 159.741 380.2C159.741 381.072 159.941 381.784 160.333 382.32ZM161.981 378.36C162.741 378.36 163.125 378.976 163.125 380.2C163.125 381.424 162.741 382.032 161.981 382.032C161.221 382.032 160.845 381.424 160.845 380.2C160.845 378.976 161.221 378.36 161.981 378.36Z" fill="white"/>
<path d="M195.088 377.92L195.36 378.864L196.416 378.568V383H197.52V377.4H196.56L195.088 377.92ZM198.966 382.32C199.366 382.848 199.918 383.112 200.614 383.112C201.326 383.112 201.87 382.848 202.262 382.32C202.654 381.784 202.854 381.072 202.854 380.2C202.854 379.328 202.654 378.624 202.262 378.088C201.87 377.552 201.326 377.288 200.614 377.288C199.918 377.288 199.366 377.552 198.966 378.088C198.574 378.624 198.374 379.328 198.374 380.2C198.374 381.072 198.574 381.784 198.966 382.32ZM200.614 378.36C201.374 378.36 201.758 378.976 201.758 380.2C201.758 381.424 201.374 382.032 200.614 382.032C199.854 382.032 199.478 381.424 199.478 380.2C199.478 378.976 199.854 378.36 200.614 378.36ZM206.653 377.4H205.389L203.645 380.032C203.429 380.36 203.317 380.736 203.317 381.16C203.317 381.744 203.501 382.208 203.877 382.568C204.253 382.928 204.741 383.112 205.341 383.112C205.941 383.112 206.429 382.928 206.805 382.568C207.181 382.2 207.373 381.728 207.373 381.16C207.373 380.608 207.189 380.144 206.829 379.784C206.469 379.424 205.997 379.232 205.413 379.216L206.653 377.4ZM206.013 380.504C206.189 380.672 206.277 380.896 206.277 381.16C206.277 381.432 206.189 381.656 206.013 381.824C205.837 381.992 205.613 382.072 205.341 382.072C205.069 382.072 204.845 381.992 204.677 381.824C204.501 381.656 204.413 381.432 204.413 381.16C204.413 380.888 204.501 380.672 204.677 380.504C204.845 380.336 205.069 380.256 205.341 380.256C205.613 380.256 205.837 380.336 206.013 380.504ZM208.47 383.104C208.654 383.104 208.814 383.04 208.95 382.904C209.086 382.768 209.15 382.608 209.15 382.424C209.15 382.24 209.086 382.08 208.95 381.944C208.814 381.808 208.654 381.744 208.47 381.744C208.286 381.744 208.126 381.808 207.99 381.944C207.854 382.08 207.79 382.24 207.79 382.424C207.79 382.608 207.854 382.768 207.99 382.904C208.126 383.04 208.286 383.104 208.47 383.104ZM213.819 381.44C213.819 380.848 213.563 380.4 213.043 380.088C213.435 379.808 213.627 379.424 213.627 378.928C213.627 378.408 213.451 378.008 213.107 377.72C212.763 377.432 212.331 377.288 211.811 377.288C211.291 377.288 210.859 377.432 210.507 377.72C210.163 378.008 209.987 378.408 209.987 378.928C209.987 379.424 210.179 379.808 210.571 380.088C210.059 380.4 209.803 380.848 209.803 381.44C209.803 381.96 209.979 382.368 210.339 382.664C210.699 382.96 211.187 383.112 211.811 383.112C212.427 383.112 212.923 382.96 213.283 382.664C213.643 382.368 213.819 381.96 213.819 381.44ZM211.811 378.328C212.027 378.328 212.195 378.384 212.331 378.504C212.467 378.624 212.531 378.784 212.531 378.984C212.531 379.192 212.467 379.352 212.331 379.472C212.195 379.592 212.027 379.648 211.811 379.648C211.595 379.648 211.427 379.592 211.291 379.472C211.155 379.352 211.091 379.192 211.091 378.984C211.091 378.784 211.155 378.624 211.291 378.504C211.427 378.384 211.595 378.328 211.811 378.328ZM212.475 380.728C212.643 380.864 212.723 381.056 212.723 381.296C212.723 381.536 212.643 381.728 212.475 381.864C212.307 382 212.091 382.072 211.811 382.072C211.531 382.072 211.315 382 211.155 381.864C210.987 381.728 210.899 381.536 210.899 381.296C210.899 381.056 210.987 380.864 211.155 380.728C211.315 380.592 211.531 380.528 211.811 380.528C212.091 380.528 212.307 380.592 212.475 380.728ZM213.861 377.92L214.133 378.864L215.189 378.568V383H216.293V377.4H215.333L213.861 377.92Z" fill="white"/>
<path d="M143.69 329.945V329.125H143.085V329.945H142.265V330.55H143.085V331.375H143.69V330.55H144.515V329.945H143.69ZM146.568 331.575C146.818 331.905 147.163 332.07 147.598 332.07C148.043 332.07 148.383 331.905 148.628 331.575C148.873 331.24 148.998 330.795 148.998 330.25C148.998 329.705 148.873 329.265 148.628 328.93C148.383 328.595 148.043 328.43 147.598 328.43C147.163 328.43 146.818 328.595 146.568 328.93C146.323 329.265 146.198 329.705 146.198 330.25C146.198 330.795 146.323 331.24 146.568 331.575ZM147.598 329.1C148.073 329.1 148.313 329.485 148.313 330.25C148.313 331.015 148.073 331.395 147.598 331.395C147.123 331.395 146.888 331.015 146.888 330.25C146.888 329.485 147.123 329.1 147.598 329.1ZM149.691 332.065C149.806 332.065 149.906 332.025 149.991 331.94C150.076 331.855 150.116 331.755 150.116 331.64C150.116 331.525 150.076 331.425 149.991 331.34C149.906 331.255 149.806 331.215 149.691 331.215C149.576 331.215 149.476 331.255 149.391 331.34C149.306 331.425 149.266 331.525 149.266 331.64C149.266 331.755 149.306 331.855 149.391 331.94C149.476 332.025 149.576 332.065 149.691 332.065ZM150.414 328.825L150.584 329.415L151.244 329.23V332H151.934V328.5H151.334L150.414 328.825ZM154.733 330.355C154.873 330.15 154.943 329.91 154.943 329.645C154.943 329.29 154.823 328.995 154.588 328.77C154.353 328.545 154.048 328.43 153.673 328.43C153.298 328.43 152.993 328.545 152.758 328.77C152.523 328.995 152.408 329.285 152.408 329.645C152.408 330 152.523 330.29 152.748 330.515C152.978 330.74 153.273 330.855 153.638 330.86L152.858 332H153.648L154.738 330.355H154.733ZM153.263 330.06C153.148 329.955 153.093 329.815 153.093 329.645C153.093 329.48 153.148 329.34 153.263 329.235C153.368 329.13 153.508 329.08 153.673 329.08C153.848 329.08 153.988 329.13 154.093 329.235C154.203 329.34 154.258 329.475 154.258 329.645C154.258 329.815 154.203 329.955 154.093 330.06C153.988 330.165 153.848 330.215 153.673 330.215C153.508 330.215 153.368 330.165 153.263 330.06ZM157.767 332.5C157.402 331.765 157.217 331.015 157.217 330.25C157.217 329.485 157.402 328.735 157.767 328H157.122C156.757 328.735 156.572 329.485 156.572 330.25C156.572 331.015 156.757 331.765 157.122 332.5H157.767ZM158.385 331.575C158.635 331.905 158.98 332.07 159.415 332.07C159.86 332.07 160.2 331.905 160.445 331.575C160.69 331.24 160.815 330.795 160.815 330.25C160.815 329.705 160.69 329.265 160.445 328.93C160.2 328.595 159.86 328.43 159.415 328.43C158.98 328.43 158.635 328.595 158.385 328.93C158.14 329.265 158.015 329.705 158.015 330.25C158.015 330.795 158.14 331.24 158.385 331.575ZM159.415 329.1C159.89 329.1 160.13 329.485 160.13 330.25C160.13 331.015 159.89 331.395 159.415 331.395C158.94 331.395 158.705 331.015 158.705 330.25C158.705 329.485 158.94 329.1 159.415 329.1ZM161.508 332.065C161.623 332.065 161.723 332.025 161.808 331.94C161.893 331.855 161.933 331.755 161.933 331.64C161.933 331.525 161.893 331.425 161.808 331.34C161.723 331.255 161.623 331.215 161.508 331.215C161.393 331.215 161.293 331.255 161.208 331.34C161.123 331.425 161.083 331.525 161.083 331.64C161.083 331.755 161.123 331.855 161.208 331.94C161.293 332.025 161.393 332.065 161.508 332.065ZM162.231 328.825L162.401 329.415L163.061 329.23V332H163.751V328.5H163.151L162.231 328.825ZM166.784 331.025C166.784 330.655 166.624 330.375 166.299 330.18C166.544 330.005 166.664 329.765 166.664 329.455C166.664 329.13 166.554 328.88 166.339 328.7C166.124 328.52 165.854 328.43 165.529 328.43C165.204 328.43 164.934 328.52 164.714 328.7C164.499 328.88 164.389 329.13 164.389 329.455C164.389 329.765 164.509 330.005 164.754 330.18C164.434 330.375 164.274 330.655 164.274 331.025C164.274 331.35 164.384 331.605 164.609 331.79C164.834 331.975 165.139 332.07 165.529 332.07C165.914 332.07 166.224 331.975 166.449 331.79C166.674 331.605 166.784 331.35 166.784 331.025ZM165.529 329.08C165.664 329.08 165.769 329.115 165.854 329.19C165.939 329.265 165.979 329.365 165.979 329.49C165.979 329.62 165.939 329.72 165.854 329.795C165.769 329.87 165.664 329.905 165.529 329.905C165.394 329.905 165.289 329.87 165.204 329.795C165.119 329.72 165.079 329.62 165.079 329.49C165.079 329.365 165.119 329.265 165.204 329.19C165.289 329.115 165.394 329.08 165.529 329.08ZM165.944 330.58C166.049 330.665 166.099 330.785 166.099 330.935C166.099 331.085 166.049 331.205 165.944 331.29C165.839 331.375 165.704 331.42 165.529 331.42C165.354 331.42 165.219 331.375 165.119 331.29C165.014 331.205 164.959 331.085 164.959 330.935C164.959 330.785 165.014 330.665 165.119 330.58C165.219 330.495 165.354 330.455 165.529 330.455C165.704 330.455 165.839 330.495 165.944 330.58ZM167.924 330.08C168.159 330.08 168.359 330 168.524 329.845C168.684 329.685 168.764 329.49 168.764 329.255C168.764 329.02 168.684 328.825 168.524 328.67C168.364 328.51 168.164 328.43 167.924 328.43C167.689 328.43 167.484 328.51 167.319 328.67C167.159 328.83 167.079 329.025 167.079 329.255C167.079 329.485 167.159 329.68 167.319 329.84C167.484 330 167.689 330.08 167.924 330.08ZM167.734 331.645L170.019 329.105L169.714 328.935L167.434 331.47L167.734 331.645ZM167.919 329.575C167.829 329.575 167.754 329.545 167.694 329.485C167.639 329.42 167.609 329.345 167.609 329.255C167.609 329.165 167.639 329.09 167.694 329.03C167.754 328.97 167.829 328.94 167.919 328.94C168.009 328.94 168.084 328.97 168.144 329.03C168.204 329.09 168.234 329.165 168.234 329.255C168.234 329.345 168.204 329.42 168.144 329.485C168.084 329.545 168.009 329.575 167.919 329.575ZM169.614 332.06C169.854 332.06 170.054 331.98 170.214 331.82C170.374 331.66 170.454 331.465 170.454 331.235C170.454 331.005 170.374 330.81 170.214 330.65C170.054 330.49 169.854 330.41 169.614 330.41C169.374 330.41 169.174 330.49 169.014 330.65C168.854 330.81 168.774 331.005 168.774 331.235C168.774 331.465 168.854 331.66 169.014 331.82C169.174 331.98 169.374 332.06 169.614 332.06ZM169.839 331.005C169.894 331.07 169.924 331.145 169.924 331.235C169.924 331.325 169.894 331.4 169.839 331.46C169.779 331.525 169.704 331.555 169.614 331.555C169.524 331.555 169.449 331.525 169.394 331.46C169.334 331.4 169.304 331.325 169.304 331.235C169.304 331.145 169.334 331.07 169.394 331.005C169.449 330.945 169.524 330.915 169.614 330.915C169.704 330.915 169.779 330.945 169.839 331.005ZM171.397 332.5C171.762 331.765 171.947 331.015 171.947 330.25C171.947 329.485 171.762 328.735 171.397 328H170.752C171.117 328.735 171.302 329.485 171.302 330.25C171.302 331.015 171.117 331.765 170.752 332.5H171.397Z" fill="#00FFFF"/>
<path d="M89.98 365.07C90.485 365.07 90.915 364.895 91.27 364.545C91.625 364.19 91.8 363.76 91.8 363.25C91.8 362.74 91.625 362.31 91.27 361.96C90.915 361.605 90.485 361.43 89.98 361.43C89.475 361.43 89.045 361.605 88.69 361.96C88.34 362.31 88.165 362.74 88.165 363.25C88.165 363.755 88.34 364.19 88.69 364.545C89.045 364.895 89.475 365.07 89.98 365.07ZM89.98 364.395C89.655 364.395 89.39 364.29 89.175 364.075C88.96 363.86 88.85 363.585 88.85 363.25C88.85 362.915 88.96 362.64 89.175 362.425C89.39 362.21 89.66 362.1 89.98 362.1C90.3 362.1 90.57 362.21 90.785 362.425C91 362.64 91.11 362.915 91.11 363.25C91.11 363.585 91 363.86 90.785 364.075C90.57 364.29 90.305 364.395 89.98 364.395ZM92.285 361.5V365H92.975V363.85H93.59C93.925 363.85 94.205 363.735 94.44 363.51C94.67 363.285 94.785 363.005 94.785 362.675C94.785 362.34 94.67 362.065 94.44 361.84C94.205 361.615 93.925 361.5 93.59 361.5H92.285ZM92.975 363.205V362.145H93.59C93.735 362.145 93.86 362.195 93.955 362.295C94.05 362.395 94.1 362.52 94.1 362.675C94.1 362.825 94.05 362.95 93.955 363.05C93.86 363.155 93.735 363.205 93.59 363.205H92.975ZM95.9242 363.555H97.2492V362.905H95.9242V362.16H97.3742V361.5H95.2342V365H97.3992V364.34H95.9242V363.555ZM99.9105 363.635L98.4105 361.5H97.8855V365H98.5755V362.86L100.076 365H100.601V361.5H99.9105V363.635Z" fill="#949494"/>
<path d="M142.315 362.89H141.015V361.5H140.325V365H141.015V363.55H142.315V365H143V361.5H142.315V362.89ZM143.65 365H144.34V361.5H143.65V365ZM146.668 363.12V363.73H147.728C147.593 364.175 147.253 364.395 146.708 364.395C146.343 364.395 146.053 364.29 145.838 364.075C145.623 363.86 145.513 363.585 145.513 363.255C145.513 362.92 145.618 362.645 145.833 362.43C146.048 362.21 146.323 362.1 146.658 362.1C146.863 362.1 147.048 362.145 147.223 362.235C147.388 362.325 147.513 362.44 147.598 362.585L148.188 362.245C148.033 361.995 147.823 361.795 147.558 361.65C147.283 361.505 146.988 361.43 146.663 361.43C146.143 361.43 145.708 361.605 145.353 361.96C145.003 362.315 144.828 362.745 144.828 363.255C144.828 363.76 145.003 364.19 145.358 364.545C145.713 364.895 146.163 365.07 146.703 365.07C147.208 365.07 147.623 364.915 147.943 364.605C148.263 364.295 148.423 363.89 148.423 363.39V363.12H146.668ZM150.904 362.89H149.604V361.5H148.914V365H149.604V363.55H150.904V365H151.589V361.5H150.904V362.89ZM151.979 361.5V362.16H152.919V365H153.609V362.16H154.554V361.5H151.979Z" fill="#949494"/>
<path d="M196.015 361.5H195.325V365H197.35V364.34H196.015V361.5ZM199.182 365.07C199.687 365.07 200.117 364.895 200.472 364.545C200.827 364.19 201.002 363.76 201.002 363.25C201.002 362.74 200.827 362.31 200.472 361.96C200.117 361.605 199.687 361.43 199.182 361.43C198.677 361.43 198.247 361.605 197.892 361.96C197.542 362.31 197.367 362.74 197.367 363.25C197.367 363.755 197.542 364.19 197.892 364.545C198.247 364.895 198.677 365.07 199.182 365.07ZM199.182 364.395C198.857 364.395 198.592 364.29 198.377 364.075C198.162 363.86 198.052 363.585 198.052 363.25C198.052 362.915 198.162 362.64 198.377 362.425C198.592 362.21 198.862 362.1 199.182 362.1C199.502 362.1 199.772 362.21 199.987 362.425C200.202 362.64 200.312 362.915 200.312 363.25C200.312 363.585 200.202 363.86 199.987 364.075C199.772 364.29 199.507 364.395 199.182 364.395ZM202.846 365L203.501 362.69L204.161 365H204.946L205.926 361.5H205.201L204.531 364.095L203.796 361.5H203.206L202.476 364.095L201.806 361.5H201.081L202.061 365H202.846Z" fill="#949494"/>
</g>
<defs>
<filter id="filter0_d" x="0" y="0" width="311" height="462" filterUnits="userSpaceOnUse" color-interpolation-filters="sRGB">
<feFlood flood-opacity="0" result="BackgroundImageFix"/>
<feColorMatrix in="SourceAlpha" type="matrix" values="0 0 0 0 0 0 0 0 0 0 0 0 0 0 0 0 0 0 127 0"/>
<feOffset dy="-10"/>
<feGaussianBlur stdDeviation="20"/>
<feColorMatrix type="matrix" values="0 0 0 0 0.482353 0 0 0 0 0.392157 0 0 0 0 0.792157 0 0 0 0.25 0"/>
<feBlend mode="normal" in2="BackgroundImageFix" result="effect1_dropShadow"/>
<feBlend mode="normal" in="SourceGraphic" in2="effect1_dropShadow" result="shape"/>
</filter>
<filter id="filter1_d" x="52.0558" y="141.13" width="209.901" height="103.1" filterUnits="userSpaceOnUse" color-interpolation-filters="sRGB">
<feFlood flood-opacity="0" result="BackgroundImageFix"/>
<feColorMatrix in="SourceAlpha" type="matrix" values="0 0 0 0 0 0 0 0 0 0 0 0 0 0 0 0 0 0 127 0"/>
<feOffset/>
<feGaussianBlur stdDeviation="5"/>
<feColorMatrix type="matrix" values="0 0 0 0 0 0 0 0 0 1 0 0 0 0 1 0 0 0 0.5 0"/>
<feBlend mode="normal" in2="BackgroundImageFix" result="effect1_dropShadow"/>
<feBlend mode="normal" in="SourceGraphic" in2="effect1_dropShadow" result="shape"/>
</filter>
</defs>
</svg>
