<svg width="32" height="38" viewBox="0 0 32 38" fill="none" xmlns="http://www.w3.org/2000/svg">
<path d="M15.9896 0C20.7988 3.36184 25.9694 5.58719 31.9925 5.46819C31.9925 7.12977 31.9925 8.7021 31.9925 10.2744C31.9925 13.9174 32.0103 17.5604 31.991 21.2034C31.9732 24.4507 30.5942 27.1937 28.6559 29.6794C26.1792 32.8538 23.1461 35.3409 19.4168 36.9475C16.9669 38.0036 14.5556 37.9293 12.1785 36.7883C7.2934 34.4454 3.49423 30.9616 1.09929 26.0468C0.388247 24.5875 0 23.036 0 21.3968C0.00148754 16.2171 0 11.0375 0 5.85941C0 5.76421 0.00892523 5.66901 0.0178505 5.47712C5.98288 5.57678 11.1655 3.39308 15.9896 0ZM9.11266 20.2037C10.749 22.142 12.3614 24.049 13.968 25.959C14.8784 27.0405 15.7813 26.9884 16.5831 25.7954C17.6184 24.2573 18.6537 22.7192 19.6831 21.1781C21.1097 19.0435 22.5332 16.9059 23.9925 14.7162C23.2249 14.2045 22.4946 13.7181 21.7374 13.2123C19.5239 16.5251 17.3432 19.7858 15.1208 23.1089C13.7806 21.5262 12.4819 19.991 11.1684 18.441C10.45 19.0583 9.79544 19.6191 9.11266 20.2037Z" fill="url(#paint0_linear)"/>
<defs>
<linearGradient id="paint0_linear" x1="35" y1="19" x2="9.5" y2="-6.5" gradientUnits="userSpaceOnUse">
<stop stop-color="#1AAAFF"/>
<stop offset="0.78943" stop-color="#00FFFF"/>
</linearGradient>
</defs>
</svg>
