<svg width="32" height="37" viewBox="0 0 32 37" fill="none" xmlns="http://www.w3.org/2000/svg">
<path d="M32 23.6089C32 22.4356 31.04 21.4756 29.8666 21.4756C31.04 21.4756 32 20.5156 32 19.3422C32 18.1689 31.04 17.2089 29.8666 17.2089H21.12C22.4213 13.3048 22.4 12.0605 22.4 9.67113C22.4 7.89613 20.9446 6.47113 19.2 6.47113H18.56C18.1546 6.47113 17.6426 6.7912 17.5359 7.2818C16.4805 11.3907 14.8305 16.1055 10.6666 17.0606V32.4961L14.3572 33.7208C15.4452 34.0834 16.576 34.2755 17.728 34.2755H27.7333C28.9115 34.2756 29.8666 33.3203 29.8666 32.1422C29.8666 30.964 28.9115 30.0089 27.7333 30.0089H29.8666C31.04 30.0089 32 29.0489 32 27.8756C32 26.7022 31.04 25.7422 29.8666 25.7422C31.04 25.7422 32 24.7822 32 23.6089Z" fill="url(#paint0_linear)"/>
<path d="M5.33333 15.0756H1.06667C0.477084 15.0756 0 15.5526 0 16.1422V35.3422C0 35.9318 0.477084 36.4089 1.06667 36.4089H5.33333C7.09788 36.4089 8.53333 34.9734 8.53333 33.2089V18.2756C8.53333 16.511 7.09788 15.0756 5.33333 15.0756ZM5.33333 32.1422C4.74425 32.1422 4.26667 31.6646 4.26667 31.0756C4.26667 30.4863 4.74425 30.0089 5.33333 30.0089C5.92242 30.0089 6.4 30.4863 6.4 31.0756C6.4 31.6646 5.92242 32.1422 5.33333 32.1422Z" fill="url(#paint1_linear)"/>
<path d="M14.674 4.70345L13.1657 3.19511C12.749 2.77847 12.074 2.77847 11.6573 3.19511C11.2407 3.61175 11.2407 4.28681 11.6573 4.70345L13.1657 6.21178C13.5823 6.62842 14.2573 6.62842 14.674 6.21178C15.0906 5.79514 15.0906 5.12009 14.674 4.70345Z" fill="url(#paint2_linear)"/>
<path d="M26.7426 3.19511C26.326 2.77847 25.6509 2.77847 25.2343 3.19511L23.7259 4.70345C23.3093 5.12009 23.3093 5.79514 23.7259 6.21178C24.1426 6.62842 24.8176 6.62842 25.2343 6.21178L26.7426 4.70345C27.1592 4.28681 27.1592 3.61175 26.7426 3.19511Z" fill="url(#paint3_linear)"/>
<path d="M19.2 0C18.6026 0 18.1333 0.469262 18.1333 1.06667V3.27111C18.1333 3.86852 18.6026 4.33778 19.2 4.33778C19.7974 4.33778 20.2666 3.86852 20.2666 3.27111V1.06667C20.2666 0.469262 19.7974 0 19.2 0Z" fill="url(#paint4_linear)"/>
<defs>
<linearGradient id="paint0_linear" x1="37.7556" y1="33.8833" x2="4.84046" y2="-8.22877" gradientUnits="userSpaceOnUse">
<stop offset="0.0838975" stop-color="#1AAAFF"/>
<stop offset="0.585654" stop-color="#00FFFF"/>
</linearGradient>
<linearGradient id="paint1_linear" x1="21.1381" y1="31.947" x2="-10.3249" y2="0.484034" gradientUnits="userSpaceOnUse">
<stop offset="0.0829105" stop-color="#1AAAFF"/>
<stop offset="1" stop-color="#00FFFF"/>
</linearGradient>
<linearGradient id="paint2_linear" x1="15.4895" y1="5.20646" x2="10.165" y2="-0.118051" gradientUnits="userSpaceOnUse">
<stop stop-color="#1AAAFF"/>
<stop offset="1" stop-color="#00FFFF"/>
</linearGradient>
<linearGradient id="paint3_linear" x1="28.1602" y1="5.80853" x2="22.2661" y2="-0.0855531" gradientUnits="userSpaceOnUse">
<stop stop-color="#1AAAFF"/>
<stop offset="0.531017" stop-color="#00FFFF"/>
</linearGradient>
<linearGradient id="paint4_linear" x1="19.2" y1="3.87237" x2="19.2" y2="-3.87237" gradientUnits="userSpaceOnUse">
<stop stop-color="#1AAAFF"/>
<stop offset="1" stop-color="#00FFFF"/>
</linearGradient>
</defs>
</svg>
