<svg width="36" height="22" viewBox="0 0 36 22" fill="none" xmlns="http://www.w3.org/2000/svg">
<path fill-rule="evenodd" clip-rule="evenodd" d="M23.8729 21.7442C23.0846 21.6607 22.3064 21.4912 21.5588 21.2433L21.8004 20.5223C22.8837 20.8815 24.0483 21.0612 25.1926 21.0485L25.2028 21.8075C24.7629 21.8125 24.3153 21.7923 23.8729 21.7442ZM26.7845 21.6709L26.665 20.922C27.8042 20.7399 28.8951 20.3705 29.9123 19.819L30.2759 20.4869C29.1825 21.0789 28.0102 21.4761 26.7845 21.6709ZM20.9053 21.0283C19.7792 20.5737 18.7413 19.9361 17.823 19.1372C15.935 20.7409 13.4852 21.7138 10.8074 21.7138C4.83916 21.7138 0 16.8995 0 10.9618C0 5.02414 4.83916 0.209758 10.8074 0.209758C13.4901 0.209758 15.944 1.1863 17.836 2.79531C15.5626 4.79392 14.1233 7.71342 14.1233 10.9618C14.1233 14.1855 15.5383 17.0852 17.7817 19.0825L18.2785 18.5237C19.1456 19.2877 20.1272 19.8924 21.1952 20.325L20.9053 21.0283ZM31.6109 19.6343L31.1532 19.0271C32.0788 18.3365 32.8748 17.5041 33.5181 16.5529L34.1513 16.9754C33.4622 18 32.6078 18.893 31.6109 19.6343ZM34.9396 15.6042L34.2505 15.2778C34.7463 14.2456 35.0591 13.1401 35.1837 11.9915L35.1888 11.9485L35.9466 12.0294L35.9415 12.0725C35.8093 13.3045 35.4736 14.4936 34.9396 15.6042ZM35.2371 10.4812C35.1914 9.33258 34.9498 8.20931 34.52 7.14423L35.2295 6.86341C35.6898 8.00945 35.9491 9.21874 36 10.4533L35.2371 10.4812ZM33.8741 5.82362C33.2943 4.82937 32.5569 3.94644 31.6796 3.19759L32.1755 2.62078C33.1163 3.42528 33.9097 4.37399 34.5327 5.44161L33.8741 5.82362ZM18.3853 3.31397L17.8716 2.75486C18.7896 1.92 19.8322 1.25211 20.9714 0.768898L21.2715 1.46715C20.2111 1.91494 19.2397 2.53729 18.3853 3.31397ZM30.4921 2.32478C29.5156 1.71002 28.4501 1.26982 27.3236 1.0143L27.494 0.275569C28.7069 0.548797 29.8512 1.02442 30.9015 1.68472L30.4921 2.32478ZM22.4463 1.09272L22.2505 0.359055C23.4457 0.0453485 24.6815 -0.0634369 25.925 0.0352289L25.864 0.791667C24.7095 0.698061 23.5601 0.799256 22.4463 1.09272ZM18.4005 3.31391C20.384 5.26193 21.6148 7.96891 21.6148 10.9618C21.6148 13.9572 20.384 16.6642 18.4005 18.6147C16.2492 16.7552 14.8862 14.0154 14.8862 10.9643C14.8862 7.91325 16.2492 5.17338 18.4005 3.31391Z" fill="url(#paint0_linear)"/>
<defs>
<linearGradient id="paint0_linear" x1="18" y1="0" x2="18" y2="21.8082" gradientUnits="userSpaceOnUse">
<stop stop-color="#00FFFF"/>
<stop offset="1" stop-color="#1AAAFF"/>
</linearGradient>
</defs>
</svg>
