<svg width="32" height="32" viewBox="0 0 32 32" fill="none" xmlns="http://www.w3.org/2000/svg">
<path fill-rule="evenodd" clip-rule="evenodd" d="M15.1253 7.56265C15.1253 11.7394 11.7394 15.1253 7.56265 15.1253C3.38591 15.1253 0 11.7394 0 7.56265C0 3.38591 3.38591 0 7.56265 0C11.7394 0 15.1253 3.38591 15.1253 7.56265ZM29.391 0.82636L31.1736 2.60889L3.38111 30.4014L1.59857 28.6188L29.391 0.82636ZM31.511 23.9484C31.511 25.6278 30.9636 27.1794 30.0374 28.4345L19.4623 17.8594C20.7173 16.9332 22.2689 16.3857 23.9484 16.3857C28.1251 16.3857 31.511 19.7716 31.511 23.9484ZM23.9484 31.511C25.6278 31.511 27.1794 30.9636 28.4344 30.0374L17.8593 19.4623C16.9332 20.7174 16.3857 22.2689 16.3857 23.9484C16.3857 28.1251 19.7716 31.511 23.9484 31.511Z" fill="url(#paint0_linear)"/>
<defs>
<linearGradient id="paint0_linear" x1="15.9999" y1="0" x2="15.9999" y2="31.511" gradientUnits="userSpaceOnUse">
<stop stop-color="#00FFFF"/>
<stop offset="1" stop-color="#1AAAFF"/>
</linearGradient>
</defs>
</svg>
