<svg width="32" height="32" viewBox="0 0 32 32" fill="none" xmlns="http://www.w3.org/2000/svg">
<path fill-rule="evenodd" clip-rule="evenodd" d="M32 0H28.0501H3.94995H7.45058e-06L0 3.94995V7.9668C0 9.02148 0.410644 10.0132 1.15698 10.7603C1.90356 11.5061 2.89526 11.9165 3.94995 11.9165H4.15015V5.02075C4.15015 4.50317 4.56982 4.08325 5.08765 4.08325H26.9126C27.4302 4.08325 27.8501 4.50317 27.8501 5.02075V11.9165H28.0501C29.1047 11.9165 30.0964 11.5059 30.8435 10.7595C31.5894 10.0132 32 9.02124 32 7.9668V3.94995V0ZM6.00591 29.035C6.00591 29.8224 6.31255 30.5621 6.86846 31.1173C7.42461 31.6742 8.16436 31.9808 8.95171 31.9808H23.0103C23.7977 31.9808 24.5374 31.6742 25.0926 31.1183C25.6492 30.5621 25.9559 29.8224 25.9559 29.035V5.93906H6.00591V29.035ZM15.981 9.01841C19.2664 9.01841 21.9393 11.6913 21.9393 14.9767C21.9393 18.2621 19.2664 20.9349 15.981 20.9349C12.6956 20.9349 10.0228 18.2621 10.0228 14.9767C10.0228 11.6913 12.6956 9.01841 15.981 9.01841ZM21.0018 25.0851C21.5196 25.0851 21.9393 25.5047 21.9393 26.0226C21.9393 26.5401 21.5196 26.9601 21.0018 26.9601H10.9603C10.4424 26.9601 10.0228 26.5401 10.0228 26.0226C10.0228 25.5047 10.4424 25.0851 10.9603 25.0851H21.0018ZM15.981 19.0599C18.2362 19.0599 20.0643 17.2318 20.0643 14.9766C20.0643 12.7215 18.2362 10.8934 15.981 10.8934C13.7259 10.8934 11.8978 12.7215 11.8978 14.9766C11.8978 17.2318 13.7259 19.0599 15.981 19.0599Z" fill="url(#paint0_linear)"/>
<defs>
<linearGradient id="paint0_linear" x1="12" y1="-4" x2="32" y2="16" gradientUnits="userSpaceOnUse">
<stop stop-color="#00FFFF"/>
<stop offset="1" stop-color="#1AAAFF"/>
</linearGradient>
</defs>
</svg>
