<svg width="32" height="32" viewBox="0 0 32 32" fill="none" xmlns="http://www.w3.org/2000/svg">
<path fill-rule="evenodd" clip-rule="evenodd" d="M16.5719 0V7.37295C18.5713 7.34475 20.5626 7.11046 22.514 6.67344C21.1641 2.90165 19.0189 0.347662 16.5719 0ZM23.999 15.396H16.5719V8.51674C18.6928 8.48881 20.805 8.23693 22.8731 7.76529C23.591 10.2464 23.97 12.8132 23.999 15.396ZM32 16.5398H25.1428C25.1169 19.2172 24.7284 21.8787 23.9881 24.4519C25.4978 24.8552 26.9546 25.4349 28.3285 26.1791C30.5842 23.4603 31.8755 20.0706 32 16.5398ZM22.514 25.2623C21.1641 29.0341 19.0189 31.5881 16.5719 31.9358V24.5628C18.5713 24.5907 20.5626 24.8253 22.514 25.2623ZM20.9131 31.2055C20.7701 31.2519 20.626 31.2941 20.4814 31.3359C20.4408 31.348 20.4002 31.3603 20.3595 31.3726C20.2801 31.3966 20.2003 31.4208 20.1195 31.4435C20.0963 31.4495 20.0731 31.4549 20.05 31.4603L20.0499 31.4604L20.0499 31.4604L20.0203 31.4674L19.996 31.4733L19.9804 31.4772C21.6732 29.8336 22.9295 27.7934 23.6355 25.5421C24.9929 25.9001 26.3067 26.4058 27.5541 27.0501C27.5454 27.0591 27.537 27.0684 27.5286 27.0776L27.5286 27.0776C27.5205 27.0866 27.5124 27.0954 27.5041 27.104C27.4386 27.1717 27.3715 27.2376 27.3043 27.3034L27.3043 27.3034L27.3043 27.3035L27.3042 27.3035L27.3042 27.3035L27.3042 27.3035L27.3042 27.3035L27.3042 27.3035L27.3042 27.3036L27.3041 27.3036L27.3041 27.3036L27.2285 27.3779L27.1915 27.4144C27.0974 27.5071 27.0031 27.6 26.9066 27.6901C26.83 27.7615 26.7516 27.8309 26.6732 27.9003L26.6167 27.9504L26.5699 27.9919C26.4749 28.0763 26.3803 28.1603 26.2822 28.2419C26.1898 28.3188 26.0963 28.3933 26.0025 28.4681L25.9783 28.4874C25.8636 28.5789 25.7463 28.6703 25.6318 28.7585C25.5279 28.835 25.4221 28.911 25.3157 28.9872C25.1973 29.0718 25.0783 29.1564 24.9577 29.2377C24.8496 29.3108 24.7402 29.3818 24.6304 29.4516C24.5078 29.5278 24.3844 29.6041 24.2604 29.6803C24.149 29.7473 24.0387 29.8124 23.9242 29.8772C23.7977 29.9492 23.6704 30.0193 23.5422 30.088C23.4277 30.1491 23.3135 30.2086 23.199 30.267C23.0686 30.3329 22.9371 30.3963 22.805 30.4586C22.6883 30.513 22.5715 30.5672 22.454 30.6188C22.3405 30.6671 22.2261 30.7151 22.1114 30.7633L22.0471 30.7903L22.0352 30.7951C21.921 30.8416 21.8071 30.8879 21.6922 30.9316C21.5526 30.9847 21.4124 31.0346 21.2716 31.0832L21.2462 31.0921L21.2462 31.0921L21.2462 31.0921L21.2462 31.0921L21.2461 31.0921L21.2461 31.0921L21.2461 31.0921L21.2461 31.0922L21.246 31.0922L21.246 31.0922L21.246 31.0922L21.246 31.0922C21.1356 31.1308 21.025 31.1695 20.9131 31.2055ZM22.8731 24.1707C20.805 23.6991 18.6928 23.4472 16.5719 23.419V16.5398H23.999C23.97 19.1225 23.591 21.6896 22.8731 24.1707ZM28.3285 5.75667C26.9546 6.50086 25.4978 7.08058 23.9881 7.48381C24.7284 10.0571 25.1169 12.7186 25.1428 15.396H32C31.8752 11.8655 30.584 8.47569 28.3285 5.75667ZM27.5255 4.85657C27.5355 4.86758 27.5455 4.87858 27.5558 4.88905C26.3073 5.53439 24.9915 6.04038 23.6327 6.39838C22.9264 4.14681 21.6704 2.10691 19.9776 0.463268C19.9981 0.468571 20.0186 0.473439 20.0392 0.478304L20.0392 0.47831C20.0652 0.484457 20.0912 0.490601 20.1169 0.497615C20.2262 0.526507 20.3347 0.558389 20.4428 0.59013L20.4428 0.590137L20.4758 0.599819C20.6227 0.642265 20.7656 0.684431 20.9086 0.730786C21.0292 0.769881 21.1482 0.811488 21.2672 0.853375C21.4079 0.901964 21.5486 0.95167 21.6874 1.00473C21.8064 1.04996 21.9237 1.09744 22.0415 1.14547C22.0867 1.16441 22.1319 1.18301 22.1771 1.2016L22.1771 1.20163C22.2685 1.23922 22.3597 1.27676 22.4503 1.31692C22.5682 1.36859 22.6843 1.42164 22.7988 1.4761C22.9348 1.53893 23.0675 1.60287 23.199 1.66933C23.2562 1.69796 23.3134 1.72784 23.3706 1.75772C23.4278 1.7876 23.4849 1.81747 23.5422 1.8461C23.6715 1.91535 23.7996 1.98628 23.9275 2.05944C24.0392 2.12283 24.1507 2.18817 24.261 2.25436C24.3869 2.32975 24.5103 2.40766 24.634 2.48725C24.7427 2.55622 24.8513 2.62659 24.9582 2.69864C25.08 2.78046 25.2001 2.86619 25.3196 2.95219C25.4249 3.02759 25.5296 3.10299 25.6329 3.1809C25.7507 3.26942 25.868 3.36157 25.9825 3.45428L26.0259 3.48884L26.0259 3.48886C26.1121 3.55747 26.1986 3.6263 26.2833 3.69778C26.3849 3.78246 26.484 3.87047 26.583 3.95825L26.583 3.95827L26.6189 3.99015C26.6581 4.0256 26.6974 4.06033 26.7365 4.09493L26.7366 4.09499C26.7946 4.14623 26.8523 4.19719 26.9088 4.24985C27.0016 4.33607 27.0919 4.42529 27.1819 4.5143L27.2302 4.56205L27.3056 4.63599L27.3057 4.63605L27.3057 4.63609C27.3732 4.70202 27.4408 4.76812 27.5066 4.83599L27.5255 4.85657ZM0 15.396H6.85718C6.88315 12.7186 7.27158 10.0571 8.01159 7.48381C6.50226 7.08085 5.04543 6.50114 3.67154 5.75667C1.41578 8.47541 0.124544 11.8655 0 15.396ZM15.4281 24.5628V31.9358C12.9811 31.5881 10.8356 29.0341 9.486 25.2623C11.4374 24.8253 13.4287 24.591 15.4281 24.5628ZM15.4281 16.5398H8.00097C8.03001 19.1225 8.40867 21.6896 9.12689 24.1707C11.195 23.6988 13.3069 23.4469 15.4281 23.419V16.5398ZM9.486 6.67344C10.8356 2.90165 12.9811 0.347662 15.4281 0V7.37295C13.4287 7.34502 11.4374 7.11074 9.486 6.67344ZM15.4281 8.51674C13.3072 8.48881 11.195 8.23693 9.12689 7.76529C8.40867 10.2464 8.03001 12.8132 8.00097 15.396H15.4281V8.51674ZM11.9484 0.479603C11.9716 0.474158 11.9948 0.468713 12.0179 0.46271C10.326 2.10552 9.07049 4.1443 8.36455 6.39447C7.00714 6.03647 5.693 5.53076 4.44589 4.88626C4.45562 4.87637 4.46491 4.86603 4.47411 4.85581L4.47412 4.85579C4.48128 4.84783 4.48838 4.83994 4.49559 4.83236C4.56025 4.76551 4.62662 4.70051 4.69287 4.63563L4.69289 4.63561L4.6929 4.63559C4.71934 4.6097 4.74576 4.58383 4.77205 4.55786L4.81762 4.51297C4.90852 4.42336 4.99955 4.33363 5.09262 4.24678C5.16119 4.18202 5.23134 4.12014 5.30163 4.05814L5.30171 4.05808L5.30174 4.05805L5.30186 4.05794C5.3294 4.03365 5.35695 4.00935 5.38443 3.98485L5.43335 3.94144L5.43338 3.94142C5.52705 3.85822 5.62033 3.77539 5.71785 3.69499C5.79991 3.62561 5.88406 3.55852 5.9681 3.49151L5.96811 3.4915L6.0214 3.44897C6.0681 3.41279 6.11383 3.37656 6.15932 3.34052L6.15937 3.34048L6.15938 3.34047L6.15939 3.34046C6.22865 3.28559 6.29733 3.23119 6.36794 3.1781C6.4721 3.10131 6.57793 3.02536 6.68433 2.94912C6.80273 2.86451 6.92169 2.7799 7.04232 2.69864C7.15039 2.62548 7.25958 2.55455 7.3696 2.48418L7.41585 2.45523C7.52289 2.38821 7.63043 2.32088 7.73904 2.25547C7.84934 2.18845 7.96188 2.12283 8.07637 2.05888C8.20259 1.98684 8.32965 1.91647 8.45782 1.84777C8.57203 1.7869 8.68653 1.72714 8.80102 1.66878C8.93143 1.60287 9.06295 1.53948 9.19503 1.47721C9.31176 1.42276 9.42821 1.36859 9.54605 1.31693C9.65648 1.27009 9.76822 1.22307 9.88005 1.17601L9.95263 1.14547C10.071 1.09688 10.1889 1.04941 10.3084 1.00361C10.4348 0.955702 10.5626 0.910584 10.6903 0.865498L10.727 0.852538L10.7558 0.842501L10.7559 0.842481L10.7559 0.842476C10.8658 0.804196 10.9758 0.765871 11.0875 0.72967C11.2316 0.683873 11.374 0.641707 11.5175 0.59982L11.6112 0.572508C11.7003 0.546466 11.7891 0.520487 11.8789 0.496499C11.9021 0.490494 11.9252 0.485049 11.9484 0.479603ZM4.76952 27.3737L4.82944 27.4328L4.82947 27.4328C4.91581 27.5181 5.00226 27.6034 5.09093 27.6862C5.14741 27.7385 5.20488 27.7893 5.26269 27.8403L5.26279 27.8404L5.2631 27.8407C5.30233 27.8753 5.34172 27.9101 5.38107 27.9456L5.39452 27.9576L5.39458 27.9576C5.50094 28.0522 5.60742 28.1469 5.71672 28.238C5.81435 28.3199 5.91388 28.3991 6.0137 28.4785L6.01747 28.4815C6.13196 28.5742 6.24617 28.6663 6.36736 28.7554C6.43497 28.8062 6.50329 28.8558 6.57187 28.9057C6.60781 28.9318 6.64383 28.958 6.67984 28.9844C6.79936 29.0701 6.91999 29.1559 7.04175 29.2382C7.1487 29.3103 7.25732 29.3807 7.36595 29.4499C7.48966 29.5292 7.61308 29.6071 7.73902 29.6825C7.84933 29.749 7.96075 29.814 8.07244 29.8777C8.20034 29.9509 8.32851 30.0218 8.45781 30.0908C8.51407 30.119 8.5704 30.1484 8.62677 30.1778C8.68482 30.2082 8.74291 30.2385 8.801 30.2675C8.93252 30.334 9.06517 30.3979 9.20116 30.4611C9.31565 30.515 9.43182 30.568 9.54966 30.62C9.64195 30.6609 9.73476 30.6991 9.82783 30.7373L9.82876 30.7377C9.87195 30.7555 9.9152 30.7733 9.95848 30.7914C10.0763 30.8394 10.1936 30.8869 10.3126 30.9321C10.4513 30.9855 10.5921 31.0352 10.7328 31.0838L10.7582 31.0927L10.7586 31.0928C10.869 31.1314 10.9795 31.1701 11.0914 31.2061C11.2344 31.2524 11.3773 31.2949 11.5242 31.3371L11.5604 31.3477C11.6674 31.3791 11.7749 31.4107 11.8828 31.4395C11.9084 31.4465 11.9342 31.4526 11.9599 31.4587C11.9808 31.4636 12.0017 31.4685 12.0224 31.4739C10.3296 29.83 9.07354 27.7901 8.36733 25.5385C7.00991 25.8968 5.69578 26.4025 4.44866 27.0473C4.45818 27.0569 4.46742 27.0671 4.4767 27.0772L4.47675 27.0773C4.48379 27.085 4.49086 27.0927 4.49809 27.1003C4.58359 27.1928 4.67575 27.2825 4.76877 27.373L4.7688 27.373L4.76952 27.3737ZM8.01159 24.4519C6.50226 24.8552 5.04543 25.4349 3.67154 26.1791C1.41578 23.4601 0.124823 20.0703 0 16.5398H6.85718C6.88315 19.2172 7.27158 21.8787 8.01159 24.4519Z" fill="url(#paint0_linear)"/>
<defs>
<linearGradient id="paint0_linear" x1="16" y1="0" x2="16" y2="31.9358" gradientUnits="userSpaceOnUse">
<stop stop-color="#00FFFF"/>
<stop offset="1" stop-color="#1AAAFF"/>
</linearGradient>
</defs>
</svg>
