<?xml version="1.0" encoding="utf-8"?>
<!-- Generator: Adobe Illustrator 24.0.1, SVG Export Plug-In . SVG Version: 6.00 Build 0)  -->
<svg version="1.1" id="b2161dc8-e844-4e61-8df6-78103927c3cf"
	 xmlns="http://www.w3.org/2000/svg" xmlns:xlink="http://www.w3.org/1999/xlink" x="0px" y="0px" viewBox="0 0 1109.3 1003.3"
	 style="enable-background:new 0 0 1109.3 1003.3;" xml:space="preserve">
<style type="text/css">
	.st0{fill:#49484B;}
	.st1{fill:#9D41EB;}
	.st2{fill:none;stroke:#49484B;stroke-width:5.33;stroke-miterlimit:10;}
</style>
<title>violet_grey_logo_velas</title>
<path class="st0" d="M769.5,6.4l-76.7,195.4h38.9L788,51.3L769.5,6.4z"/>
<polygon class="st1" points="889.1,201.9 850.2,201.9 788,51.3 769.5,6.4 812.3,6.4 "/>
<path class="st0" d="M119.6,198.3L196.3,2.8h-38.9L101,153.4L119.6,198.3z"/>
<polygon class="st0" points="0,2.8 38.9,2.8 101,153.4 119.6,198.3 76.8,198.3 "/>
<rect x="276.2" y="168.1" class="st0" width="133.9" height="30.2"/>
<rect x="276.2" y="83.8" class="st0" width="133.9" height="30.2"/>
<path class="st0" d="M503.7,198.3V2.9h34.3v165.2h86.1v30.2H503.7z"/>
<path class="st0" d="M954,171l19-26.4c7.7,8.1,16.9,14.8,27,19.5c10.9,5.1,22.8,7.7,34.9,7.6c13.1,0,22.9-2.7,29.4-8
	c6.5-5.3,9.8-11.6,9.8-18.9c0.1-4.2-1.3-8.3-3.9-11.5c-2.8-3.4-6.4-6.2-10.5-8c-4.9-2.2-9.9-4.1-15.1-5.5l-17.9-5l-18.9-5.2
	c-6.2-1.7-12.3-4.1-18.1-7c-5.4-2.8-10.5-6.2-15.1-10.2c-4.6-4.1-8.2-9.2-10.5-14.8c-2.7-6.5-4.1-13.6-3.9-20.6
	c0-16.3,6.6-29.9,19.8-40.7S1010.3,0,1031.4,0c30.2,0,54.7,9,73.5,27l-19.8,25.5c-7.3-7.4-16.1-13-25.9-16.7
	c-9.8-3.8-20.2-5.7-30.7-5.7c-10,0-18,2.2-24.1,6.7c-5.8,4-9.2,10.7-9.1,17.8c0,3.8,1.3,7.4,3.8,10.2c2.9,3.1,6.4,5.6,10.4,7.2
	c4.9,2.1,10,3.8,15.1,5.2l18,5.1l18.9,5.3c6.3,1.8,12.3,4.2,18.1,7.2c5.5,2.9,10.7,6.4,15.3,10.6c4.6,4.3,8.1,9.5,10.4,15.3
	c2.7,6.7,4,13.8,3.9,21c0.1,7.9-1.5,15.8-4.5,23.1c-3.1,7.3-7.7,13.8-13.5,19.1c-6,5.6-13.9,10-23.8,13.2s-21.3,4.8-34.1,4.8
	C999.9,201.9,973.4,191.6,954,171z"/>
<rect x="276.2" y="2.9" class="st1" width="133.9" height="30.2"/>
<rect x="552" y="676.9" class="st0" width="5.4" height="169.7"/>
<line class="st2" x1="325.8" y1="449" x2="465.1" y2="521.7"/>
<line class="st2" x1="783.6" y1="449" x2="644.3" y2="521.7"/>
<path class="st0" d="M315.4,443l53.4,92.6l4.3,6l38,67.1l3.3,5.9l0.2,0.3l140.1,242.6l140.2-242.9l3.3-5.9l38-67.1l4.2-6l53.5-92.6
	H315.4z M731.8,538.8l-1.6,2.7l-38.7,67.1l-3.8,6.6L557.4,840.8l-2.7,4.7l-2.7-4.7L421.7,615.2l-3.8-6.5l-38.7-67.1l-0.1-0.2
	l-1.6-2.6l-1-1.8l-50.8-88l0,0V449h457.7l-0.1,0.2L731.8,538.8z"/>
<polygon class="st0" points="642.2,519.3 554.7,569.9 482.5,528.2 482.5,528.2 473.6,523.1 473.1,522.9 467,519.3 "/>
<polygon class="st0" points="552,575 552,676.9 533.4,644.7 469.1,533.3 463.8,524.1 463.8,524 464.1,524.3 470.5,527.9 
	476.9,531.6 "/>
<polygon class="st0" points="645.5,524.3 617.6,572.7 617.6,572.7 559.2,673.9 557.5,676.9 557.5,575.1 630,533.2 630,533.2 
	639,528.1 639.4,527.8 "/>
<path class="st0" d="M922.1,369l-99.7,172.6h-86.2l4.2-6l53.5-92.6H315.4l53.4,92.6l4.3,6h-86.3L187.3,369h140.5v3
	c-0.1,15.4,12.4,27.9,27.8,28c0,0,0,0,0,0h398.2c15.3,0,27.8-12.5,27.8-27.8v-3l3-0.2L922.1,369z"/>
<polygon class="st1" points="782.5,608.7 554.7,1003.3 326.9,608.7 411.2,608.7 414.5,614.7 414.6,615 554.7,857.5 695,614.7 
	698.2,608.7 "/>
</svg>
